# xmcd
#
# Track frame offsets: 
#        150
#        18400
#        51235
#        83784
#        105200
#        131715
#        155910
#        177754
#        192316
#        208984
#
# Disc length: 2924 seconds
#
# Revision: 0
# Processed by: cddbd v1.5.2PL0 Copyright (c) Steve Scherf et al.
# Submitted via: ExactAudioCopy v1.0b4
#
DISCID=870b6a0a
DTITLE=Too Slim And The Taildraggers - Blood Moon
DYEAR=2016
DGENRE=Blues
TTITLE0=Evil Mind
TTITLE1=Blood Moon
TTITLE2=Twisted Rails
TTITLE3=Get You Goin' Out On
TTITLE4=Gypsy
TTITLE5=My Body
TTITLE6=Dream
TTITLE7=Letter
TTITLE8=Good Guys Win
TTITLE9=Twisted Rails (Slight Return)
EXTD=
EXTT0=
EXTT1=
EXTT2=
EXTT3=
EXTT4=
EXTT5=
EXTT6=
EXTT7=
EXTT8=
EXTT9=
PLAYORDER=
